<svg xmlns="http://www.w3.org/2000/svg" xmlns:xlink="http://www.w3.org/1999/xlink" width="250" zoomAndPan="magnify" viewBox="0 0 187.5 37.5" height="50" preserveAspectRatio="xMidYMid meet" version="1.0"><defs><g/><clipPath id="id1"><path d="M 11.496094 0 L 36.730469 0 L 36.730469 31.167969 L 11.496094 31.167969 Z M 11.496094 0 " clip-rule="nonzero"/></clipPath></defs><g clip-path="url(#id1)"><path fill="rgb(100%, 72.158813%, 0%)" d="M 32.347656 7.179688 L 30.550781 7.179688 L 30.550781 6.4375 C 30.550781 2.894531 27.652344 0.0078125 24.082031 0.0078125 C 20.511719 0.0078125 17.617188 2.886719 17.617188 6.4375 L 17.617188 7.179688 L 15.816406 7.179688 C 13.492188 7.179688 11.609375 9.054688 11.609375 11.363281 L 11.609375 26.96875 C 11.609375 29.277344 13.492188 31.152344 15.816406 31.152344 L 32.347656 31.152344 C 34.671875 31.152344 36.554688 29.277344 36.554688 26.96875 L 36.554688 11.371094 C 36.554688 9.0625 34.671875 7.179688 32.347656 7.179688 Z M 19.921875 6.445312 C 19.921875 4.160156 21.792969 2.300781 24.089844 2.300781 C 26.390625 2.300781 28.257812 4.160156 28.257812 6.445312 L 28.257812 7.1875 L 19.921875 7.1875 Z M 24.082031 25.78125 C 20.726562 25.78125 18 23.066406 18 19.730469 L 19.914062 19.730469 C 19.914062 22.015625 21.785156 23.875 24.082031 23.875 C 26.382812 23.875 28.25 22.015625 28.25 19.730469 L 30.164062 19.730469 C 30.171875 23.058594 27.445312 25.78125 24.082031 25.78125 Z M 24.082031 25.78125 " fill-opacity="1" fill-rule="nonzero"/></g><g fill="rgb(1.179504%, 4.708862%, 19.60907%)" fill-opacity="1"><g transform="translate(39.580351, 23.747367)"><g><path d="M 7.113281 -14.265625 L 1.628906 -14.265625 L 1.628906 0 L 4.707031 0 L 4.707031 -4.441406 L 7.113281 -4.441406 C 9.984375 -4.441406 12.144531 -6.542969 12.144531 -9.355469 C 12.144531 -12.164062 9.964844 -14.265625 7.113281 -14.265625 Z M 6.96875 -7.296875 L 4.707031 -7.296875 L 4.707031 -11.390625 L 6.96875 -11.390625 C 8.191406 -11.390625 9.027344 -10.535156 9.027344 -9.355469 C 9.027344 -8.171875 8.191406 -7.296875 6.96875 -7.296875 Z M 6.96875 -7.296875 "/></g></g></g><g fill="rgb(1.179504%, 4.708862%, 19.60907%)" fill-opacity="1"><g transform="translate(52.252452, 23.747367)"><g><path d="M 7.050781 -11.066406 C 5.625 -11.066406 4.644531 -10.617188 3.851562 -9.640625 L 3.320312 -11.003906 L 1.425781 -11.003906 L 1.425781 0 L 4.402344 0 L 4.402344 -5.707031 C 4.402344 -7.5 5.054688 -8.253906 6.726562 -8.253906 L 8.027344 -8.253906 L 8.027344 -11.066406 Z M 7.050781 -11.066406 "/></g></g></g><g fill="rgb(1.179504%, 4.708862%, 19.60907%)" fill-opacity="1"><g transform="translate(60.544325, 23.747367)"><g><path d="M 1.425781 -12.472656 L 4.382812 -12.472656 L 4.382812 -15.222656 L 1.425781 -15.222656 Z M 1.425781 0 L 4.402344 0 L 4.402344 -11.003906 L 1.425781 -11.003906 Z M 1.425781 0 "/></g></g></g><g fill="rgb(1.179504%, 4.708862%, 19.60907%)" fill-opacity="1"><g transform="translate(66.371044, 23.747367)"><g><path d="M 13.9375 -11.25 C 12.53125 -11.25 11.289062 -10.554688 10.535156 -9.496094 C 9.882812 -10.597656 8.742188 -11.25 7.335938 -11.25 C 6.03125 -11.25 4.828125 -10.617188 4.054688 -9.640625 L 3.503906 -11.003906 L 1.425781 -11.003906 L 1.425781 0 L 4.402344 0 L 4.402344 -5.949219 C 4.402344 -7.664062 5.195312 -8.640625 6.542969 -8.640625 C 7.601562 -8.640625 8.171875 -7.867188 8.171875 -6.398438 L 8.171875 0 L 11.066406 0 L 11.066406 -5.949219 C 11.066406 -7.664062 11.859375 -8.640625 13.183594 -8.640625 C 14.265625 -8.640625 14.835938 -7.867188 14.835938 -6.398438 L 14.835938 0 L 17.8125 0 L 17.8125 -6.886719 C 17.8125 -9.476562 16.222656 -11.25 13.9375 -11.25 Z M 13.9375 -11.25 "/></g></g></g><g fill="rgb(1.179504%, 4.708862%, 19.60907%)" fill-opacity="1"><g transform="translate(85.481057, 23.747367)"><g><path d="M 12.105469 -5.523438 C 12.105469 -8.703125 9.78125 -11.308594 6.398438 -11.308594 C 3.136719 -11.308594 0.691406 -8.804688 0.691406 -5.503906 C 0.691406 -2.199219 3.160156 0.324219 6.398438 0.324219 C 8.964844 0.324219 11.066406 -1.203125 11.859375 -3.605469 L 8.742188 -3.605469 C 8.292969 -2.8125 7.4375 -2.324219 6.398438 -2.324219 C 4.953125 -2.324219 3.972656 -3.160156 3.707031 -4.667969 L 12.042969 -4.667969 C 12.085938 -4.953125 12.105469 -5.238281 12.105469 -5.523438 Z M 6.398438 -8.761719 C 7.742188 -8.761719 8.703125 -8.027344 9.128906 -6.683594 L 3.789062 -6.683594 C 4.136719 -7.988281 5.074219 -8.761719 6.398438 -8.761719 Z M 6.398438 -8.761719 "/></g></g></g><g fill="rgb(1.179504%, 4.708862%, 19.60907%)" fill-opacity="1"><g transform="translate(98.275396, 23.747367)"><g><path d="M 19.09375 0 L 16.894531 -14.265625 L 13.796875 -14.265625 L 9.925781 -5.503906 L 6.050781 -14.265625 L 2.976562 -14.265625 L 0.734375 0 L 3.871094 0 L 5.277344 -9.292969 L 9.535156 -0.0195312 L 10.289062 -0.0195312 L 14.550781 -9.292969 L 15.957031 0 Z M 19.09375 0 "/></g></g></g><g fill="rgb(1.179504%, 4.708862%, 19.60907%)" fill-opacity="1"><g transform="translate(118.139223, 23.747367)"><g><path d="M 6.644531 0.324219 C 10.046875 0.324219 12.59375 -2.179688 12.59375 -5.503906 C 12.59375 -8.824219 10.046875 -11.308594 6.644531 -11.308594 C 3.238281 -11.308594 0.691406 -8.824219 0.691406 -5.503906 C 0.691406 -2.179688 3.238281 0.324219 6.644531 0.324219 Z M 6.644531 -2.484375 C 4.929688 -2.484375 3.707031 -3.707031 3.707031 -5.503906 C 3.707031 -7.273438 4.929688 -8.519531 6.644531 -8.519531 C 8.355469 -8.519531 9.578125 -7.273438 9.578125 -5.503906 C 9.578125 -3.707031 8.355469 -2.484375 6.644531 -2.484375 Z M 6.644531 -2.484375 "/></g></g></g><g fill="rgb(1.179504%, 4.708862%, 19.60907%)" fill-opacity="1"><g transform="translate(131.442888, 23.747367)"><g><path d="M 8.640625 -11.003906 L 5.992188 -3.628906 L 3.300781 -11.003906 L 0.121094 -11.003906 L 4.605469 0 L 7.355469 0 L 11.71875 -11.003906 Z M 8.640625 -11.003906 "/></g></g></g><g fill="rgb(1.179504%, 4.708862%, 19.60907%)" fill-opacity="1"><g transform="translate(143.340804, 23.747367)"><g><path d="M 1.425781 -12.472656 L 4.382812 -12.472656 L 4.382812 -15.222656 L 1.425781 -15.222656 Z M 1.425781 0 L 4.402344 0 L 4.402344 -11.003906 L 1.425781 -11.003906 Z M 1.425781 0 "/></g></g></g><g fill="rgb(1.179504%, 4.708862%, 19.60907%)" fill-opacity="1"><g transform="translate(149.167523, 23.747367)"><g><path d="M 12.105469 -5.523438 C 12.105469 -8.703125 9.78125 -11.308594 6.398438 -11.308594 C 3.136719 -11.308594 0.691406 -8.804688 0.691406 -5.503906 C 0.691406 -2.199219 3.160156 0.324219 6.398438 0.324219 C 8.964844 0.324219 11.066406 -1.203125 11.859375 -3.605469 L 8.742188 -3.605469 C 8.292969 -2.8125 7.4375 -2.324219 6.398438 -2.324219 C 4.953125 -2.324219 3.972656 -3.160156 3.707031 -4.667969 L 12.042969 -4.667969 C 12.085938 -4.953125 12.105469 -5.238281 12.105469 -5.523438 Z M 6.398438 -8.761719 C 7.742188 -8.761719 8.703125 -8.027344 9.128906 -6.683594 L 3.789062 -6.683594 C 4.136719 -7.988281 5.074219 -8.761719 6.398438 -8.761719 Z M 6.398438 -8.761719 "/></g></g></g><g fill="rgb(1.179504%, 4.708862%, 19.60907%)" fill-opacity="1"><g transform="translate(161.961863, 23.747367)"><g><path d="M 5.320312 0.324219 C 8.109375 0.324219 9.945312 -1.140625 9.945312 -3.382812 C 9.945312 -6.074219 7.640625 -6.441406 5.847656 -6.765625 C 4.707031 -6.96875 3.769531 -7.152344 3.769531 -7.886719 C 3.769531 -8.519531 4.320312 -8.925781 5.238281 -8.925781 C 6.277344 -8.925781 6.886719 -8.496094 6.910156 -7.621094 L 9.742188 -7.621094 C 9.71875 -9.824219 7.96875 -11.308594 5.320312 -11.308594 C 2.667969 -11.308594 0.898438 -9.863281 0.898438 -7.785156 C 0.898438 -5.195312 3.136719 -4.726562 4.890625 -4.421875 C 6.050781 -4.238281 7.011719 -4.015625 7.011719 -3.261719 C 7.011719 -2.527344 6.257812 -2.140625 5.441406 -2.140625 C 4.382812 -2.140625 3.628906 -2.628906 3.605469 -3.605469 L 0.714844 -3.605469 C 0.714844 -1.261719 2.566406 0.324219 5.320312 0.324219 Z M 5.320312 0.324219 "/></g></g></g></svg>